HIERARCHY
ROOT Hips
{
  OFFSET 196.326 95.9168 97.7182
  CHANNELS 6 Xposition Yposition Zposition Zrotation Xrotation Yrotation
  JOINT LeftUpLeg
  {
    OFFSET 8.64259 1.95398 -2.38835
    CHANNELS 3 Zrotation Xrotation Yrotation
    JOINT LeftLeg
    {
      OFFSET 43.7702 0 0
      CHANNELS 3 Zrotation Xrotation Yrotation
      JOINT LeftFoot
      {
        OFFSET 40.6238 0 0
        CHANNELS 3 Zrotation Xrotation Yrotation
        JOINT LeftToeBase
        {
          OFFSET 12.7242 0 0
          CHANNELS 3 Zrotation Xrotation Yrotation
          End Site
          {
            OFFSET 0 0 0
          }
        }
      }
    }
  }
  JOINT RightUpLeg
  {
    OFFSET -8.2249 1.95398 -2.59336
    CHANNELS 3 Zrotation Xrotation Yrotation
    JOINT RightLeg
    {
      OFFSET 43.5653 0 0
      CHANNELS 3 Zrotation Xrotation Yrotation
      JOINT RightFoot
      {
        OFFSET 40.6238 0 0
        CHANNELS 3 Zrotation Xrotation Yrotation
        JOINT RightToeBase
        {
          OFFSET 12.7242 0 0
          CHANNELS 3 Zrotation Xrotation Yrotation
          End Site
          {
            OFFSET 0 0 0
          }
        }
      }
    }
  }
  JOINT Spine
  {
    OFFSET 0.165834 0.87714 6.61349
    CHANNELS 3 Zrotation Xrotation Yrotation
    JOINT Spine1
    {
      OFFSET 7.38963 1.71661e-005 0
      CHANNELS 3 Zrotation Xrotation Yrotation
      JOINT Spine2
      {
        OFFSET 11.9445 1.14441e-005 0
        CHANNELS 3 Zrotation Xrotation Yrotation
        JOINT Spine3
        {
          OFFSET 14.7254 4.19617e-005 0
          CHANNELS 3 Zrotation Xrotation Yrotation
          JOINT Spine4
          {
            OFFSET 10.9679 0 0
            CHANNELS 3 Zrotation Xrotation Yrotation
            JOINT RightShoulder
            {
              OFFSET 2.46616 -1.6653 3.69651
              CHANNELS 3 Zrotation Xrotation Yrotation
              JOINT RightArm
              {
                OFFSET 13.0012 0 0
                CHANNELS 3 Zrotation Xrotation Yrotation
                JOINT RightForeArm
                {
                  OFFSET 28.7848 1.52588e-005 0
                  CHANNELS 3 Zrotation Xrotation Yrotation
                  JOINT RightHand
                  {
                    OFFSET 26.5688 1.52588e-005 0
                    CHANNELS 3 Zrotation Xrotation Yrotation
                    End Site
                    {
                      OFFSET 0 0 0
                    }
                  }
                }
              }
            }
            JOINT LeftShoulder
            {
              OFFSET 2.38034 -1.29275 -3.75231
              CHANNELS 3 Zrotation Xrotation Yrotation
              JOINT LeftArm
              {
                OFFSET 16.3182 6.10351e-005 0
                CHANNELS 3 Zrotation Xrotation Yrotation
                JOINT LeftForeArm
                {
                  OFFSET 27.0901 0 0
                  CHANNELS 3 Zrotation Xrotation Yrotation
                  JOINT LeftHand
                  {
                    OFFSET 24.5451 1.52588e-005 0
                    CHANNELS 3 Zrotation Xrotation Yrotation
                    End Site
                    {
                      OFFSET 0 0 0
                    }
                  }
                }
              }
            }
            JOINT Neck
            {
              OFFSET 5.0226 -0.0266342 0
              CHANNELS 3 Zrotation Xrotation Yrotation
              JOINT Head
              {
                OFFSET 6.69363 2.86102e-005 0
                CHANNELS 3 Zrotation Xrotation Yrotation
                End Site
                {
                  OFFSET 0 0 0
                }
              }
            }
          }
        }
      }
    }
  }
}
MOTION
Frames:	17
Frame Time:	0.0416667
63.1233 78.2314 -5.1889 -83.7068 -2.64717 -90.5311 179.969 50.7133 110.755 -60.9249 23.6605 0.922806 52.19 2.06479 21.666 75.8534 35.7429 -24.9639 174.154 47.155 95.3892 -90.0055 17.292 -5.26399 69.0992 -9.47882 -5.473 58.7667 5.11075 15.8031 -0.0583229 8.89157 -88.67 9.0777 0.478015 2.60043 -2.59572 0.591966 2.5769 -25.1101 -0.32534 2.62389 -5.09746 -0.325338 2.62389 78.7356 -51.1513 -117.281 22.9002 -10.8479 7.12133 -16.3116 -16.5704 -51.4857 -13.5223 -1.05861 4.09026 -98.6172 -34.566 59.6862 -10.9197 -22.1444 3.70272 14.7459 2.25127 -78.8884 27.2275 3.41959 8.7959 3.6917 -34.0937 -7.9232 -1.67766 -33.252 -20.2144 
62.3428 78.4507 -6.18316 -82.6397 -0.116412 -89.903 -178.915 49.9607 111.863 -59.5661 23.6701 0.7082 51.7146 2.35918 23.2405 75.5451 36.5577 -22.9061 170.479 50.3946 97.4886 -90.5183 17.486 -4.73548 68.1034 -8.98124 -6.0465 58.3678 4.56971 13.5952 -0.239963 8.8762 -88.7327 9.11391 0.0881003 2.50369 -2.55944 0.198169 2.49738 -25.0762 -0.668228 2.41452 -5.06354 -0.66822 2.41453 78.2835 -51.4611 -117.807 24.2527 -14.1155 10.8971 -17.736 -19.3955 -51.4771 -12.0843 -0.930181 3.76965 -97.4718 -33.7815 61.2834 -12.045 -18.7603 2.01583 15.8426 2.18788 -80.7634 29.862 3.9413 9.53082 4.11739 -33.1548 -7.87169 -0.35462 -32.4407 -19.1906 
61.2758 78.9998 -7.43383 -81.5901 2.62825 -90.8852 -177.236 48.042 112.087 -57.3333 21.5016 0.664047 52.1406 2.84764 22.4128 74.0108 36.4686 -20.7924 167.649 53.1836 98.0822 -89.8667 19.2767 -4.37891 69.5311 -9.42567 -6.08774 57.5663 5.16317 17.3457 -0.351476 8.82148 -88.7943 9.22641 -0.160589 2.4002 -2.44674 -0.0548347 2.40493 -24.9659 -0.874344 2.24112 -4.95329 -0.874341 2.24111 78.6615 -52.3568 -116.898 26.2074 -15.8371 15.5338 -19.8998 -20.0444 -52.9136 -8.59431 -0.710884 3.12709 -97.7622 -33.6092 60.6974 -11.4663 -15.9235 3.65823 19.3516 1.86442 -84.3153 26.5987 3.36055 8.93173 5.76966 -32.6021 -7.74614 0.430874 -31.7792 -17.5062 
59.756 79.9471 -9.161 -81.2488 6.60039 -92.5628 -173.629 43.7738 111.344 -52.9356 21.0209 -0.0601264 50.5323 1.67566 22.6563 74.4434 37.5401 -19.3386 166.342 55.5206 96.5812 -89.0045 16.6281 -3.88874 66.268 -7.5424 -5.38862 61.8029 5.21288 13.5434 -0.462956 8.75752 -88.9137 9.35792 -0.435126 2.18466 -2.31481 -0.33861 2.20168 -24.8382 -1.07146 1.95305 -4.82555 -1.07148 1.95305 79.3236 -51.5249 -116.275 28.9801 -17.9914 20.8741 -19.4946 -18.693 -54.7335 -11.933 -0.828293 2.60299 -98.0161 -34.206 60.5437 -12.817 -12.0056 6.56936 19.3365 1.14468 -85.4438 26.1569 3.37799 9.21693 8.7503 -31.9884 -5.18747 0.506809 -31.3327 -16.3557 
57.6087 81.4478 -11.561 -81.0983 11.8762 -95.2682 -168.874 36.3951 110.057 -45.5888 19.6 -1.26262 49.2956 0.361902 21.4079 72.918 37.3809 -17.2845 165.287 56.6823 94.4627 -86.9698 15.9004 -3.13943 64.9707 -6.3344 -4.10784 64.4761 5.43349 12.3471 -0.515414 8.59468 -88.9895 9.68535 -0.570628 2.049 -1.98711 -0.4799 2.07211 -24.5129 -1.15996 1.78292 -4.50025 -1.15996 1.78292 80.2295 -50.5836 -115.324 32.0649 -19.3729 26.0573 -20.2676 -18.2413 -57.0335 -13.4129 -0.887574 2.56218 -97.9233 -35.3308 61.2302 -15.6984 -6.92186 9.92373 24.0542 2.15525 -83.8579 25.4169 3.63173 10.5906 10.4031 -30.4114 -2.55441 0.699854 -30.1623 -15.2493 
54.8799 83.5928 -14.7625 -80.2964 17.7964 -98.8646 -165.125 25.757 108.561 -34.03 14.1671 -1.94312 48.9842 -1.42521 13.633 67.3697 35.5778 -11.52 163.075 56.7641 92.8868 -83.9509 15.0951 -1.74547 68.449 -6.23676 -3.18995 60.3283 4.13568 10.0227 -0.490215 8.28418 -89.0469 10.3063 -0.540854 1.93995 -1.36601 -0.454937 1.96186 -23.8928 -1.09876 1.68785 -3.88013 -1.09878 1.68784 81.1317 -49.6402 -114.353 34.8831 -18.2479 30.0644 -20.6504 -17.1561 -57.0911 -13.3975 -0.735043 0.990823 -97.9774 -36.7968 61.8061 -20.1202 -2.48961 13.3882 25.2246 4.58141 -78.3704 26.5342 3.87983 10.9461 10.6688 -28.1791 -0.425454 1.31189 -28.3434 -13.0005 
51.8032 85.6187 -18.8344 -78.5437 23.319 -103.34 -163.67 14.5713 106.754 -20.8298 7.61326 -1.44762 42.1546 -7.07552 4.53329 62.2479 33.3118 -6.30814 160.409 56.6324 91.3966 -80.5075 14.228 0.289323 68.1491 -5.16009 -2.69056 63.136 5.90188 15.2918 -0.432518 7.96113 -89.0522 10.9514 -0.422354 1.92571 -0.720925 -0.337191 1.9424 -23.2472 -0.981499 1.70985 -3.23453 -0.981496 1.70985 81.2697 -50.3213 -113.889 34.6545 -18.109 31.5594 -18.2306 -15.4342 -57.2365 -13.4965 -0.739949 1.06238 -97.5084 -37.4623 62.8824 -25.3558 0.475772 15.8263 22.5942 7.47398 -70.0876 28.7288 3.97672 10.1727 9.89735 -25.6594 0.321939 2.86167 -25.9334 -9.23109 
49.155 87.2652 -23.5806 -75.9357 27.809 -107.393 -164.432 5.14593 105.273 -7.48643 3.27606 -0.0818125 30.1771 -12.3743 -2.59486 45.4364 20.1333 8.00125 157.634 55.5562 91.7456 -77.1382 13.6757 2.98767 70.7038 -5.04889 -2.55607 60.5165 5.335 15.2465 -0.441084 7.71387 -89.2386 11.447 -0.521869 1.56917 -0.224807 -0.452327 1.59059 -22.7549 -0.969296 1.33984 -2.74224 -0.9693 1.33984 79.973 -50.9745 -115.548 32.0813 -16.823 31.2097 -19.1257 -15.4503 -57.7318 -15.2671 -0.77637 0.884798 -96.5092 -38.0026 64.7737 -30.8356 2.22444 17.0963 17.4503 8.80157 -60.9944 30.6223 3.95836 9.24395 10.1482 -23.295 2.0741 4.43118 -23.8559 -6.42422 
47.1169 88.2014 -28.8818 -72.1678 32.4871 -112.597 -168.303 2.91081 102.683 -9.23361 7.03197 0.839402 29.2925 -13.004 -0.715265 34.5181 6.43118 1.43014 158.054 54.0903 91.9073 -73.3521 13.0156 4.58387 68.0914 -3.98201 -2.08854 58.9836 4.11888 10.5584 -0.328122 7.62853 -89.3807 11.6177 -0.362561 1.27214 -0.0538089 -0.306206 1.28686 -22.5854 -0.728089 1.10441 -2.57279 -0.728096 1.10441 79.9061 -52.9006 -114.901 26.3669 -15.2162 27.7229 -18.7649 -13.3421 -58.8073 -17.8066 -0.841941 0.589182 -96.4798 -38.5023 65.0257 -35.7002 2.41262 18.6986 13.368 8.34264 -54.6634 32.5617 4.09045 8.86363 12.2033 -21.1575 3.95964 5.97818 -22.096 -4.71158 
45.46 87.8557 -34.057 -67.3155 38.3369 -117.639 -170.904 6.6496 100.107 -22.6366 11.5643 1.18885 36.9497 -9.45016 3.43099 33.9116 5.73472 0.411871 161.011 50.0415 92.986 -68.1333 11.8256 5.37057 65.678 -3.25634 -1.78533 54.3284 4.43655 17.2805 -0.112968 7.66682 -89.5464 11.5391 -0.012482 0.905502 -0.132209 0.0273843 0.905161 -22.665 -0.284032 0.859895 -2.65233 -0.284036 0.85989 79.24 -54.5239 -115.233 20.1763 -14.1483 22.8242 -19.5996 -10.9054 -63.3045 -23.3911 -1.3136 2.22689 -96.2776 -38.938 65.534 -40.1802 2.47061 21.2324 10.4865 6.99041 -50.8938 30.5843 3.73774 8.51571 14.3197 -18.9681 5.47759 7.65971 -20.2871 -3.48583 
43.9846 86.2992 -39.399 -62.3207 44.4537 -121.804 -171.843 12.8957 98.9545 -40.7987 16.8968 0.755935 41.9234 -7.94832 7.44748 40.2315 12.2694 -4.33906 165.43 43.6048 94.8486 -65.1675 13.2442 5.62735 75.5346 -5.6217 -2.67619 53.5823 4.49459 18.6712 0.182388 7.87467 -89.8028 11.1238 0.454665 0.348326 -0.547124 0.469555 0.327973 -23.0823 0.328945 0.468875 -3.06964 0.328952 0.468865 79.2046 -53.6447 -115.618 16.5614 -11.9707 16.6417 -23.3953 -8.77458 -68.6229 -28.2862 -1.87262 3.66717 -96.496 -39.9348 65.5676 -43.9504 5.18938 23.4383 9.28841 8.42468 -47.4443 28.2973 3.38897 8.27047 16.9799 -16.8114 7.81078 8.91857 -18.8394 -2.64296 
43.0118 85.4126 -44.5184 -55.4241 47.7552 -127.296 -172.96 23.0417 97.8657 -56.3698 20.9022 0.105009 43.1842 -7.42486 7.9064 45.4415 17.1919 -6.22606 168.201 40.9978 97.0743 -62.9811 14.5008 5.05007 78.4887 -5.99877 -2.69089 54.167 5.18014 21.873 0.526101 7.84355 -90.008 11.1875 1.04326 -0.118369 -0.48304 1.03704 -0.164173 -23.0214 1.03061 0.200694 -3.00877 1.03061 0.200692 79.6543 -52.3911 -115.458 14.462 -10.2021 11.268 -26.3268 -4.75751 -75.9367 -33.0573 -1.68885 1.95149 -97.4414 -40.7384 64.3545 -46.9609 8.90195 25.2341 8.50696 12.278 -42.676 20.3875 1.85333 5.31209 19.4827 -15.1212 9.62062 9.58624 -17.7703 -1.82018 
42.0519 85.0831 -49.2422 -48.5983 52.7492 -133.375 -172.626 33.2428 96.2589 -69.6341 21.0976 -0.393862 43.8387 -7.32167 8.18921 47.2256 18.9964 -5.92164 170.599 36.6097 98.2824 -59.8543 12.6104 3.82579 78.6141 -6.68318 -2.97891 56.2417 5.76406 22.1491 0.992684 8.01108 -90.0901 10.8549 1.93494 -0.359765 -0.814654 1.91726 -0.44461 -23.3611 1.95358 0.238625 -3.34846 1.95359 0.238621 80.8191 -48.8467 -115.135 13.6944 -10.1648 4.4992 -31.6902 3.03555 -85.741 -33.1237 -2.06394 3.43993 -97.3167 -40.8603 64.6032 -50.7336 11.1059 27.962 9.06522 16.1213 -41.7664 11.89 0.974995 4.07247 21.629 -13.4541 11.2306 9.21682 -16.8224 -1.86722 
40.8285 85.3691 -55.3112 -43.3969 56.4392 -140.188 -170.71 42.041 92.2631 -76.5111 19.2504 -0.761388 45.3246 -6.49381 8.50472 44.0975 16.3011 -3.69243 173.101 29.6624 95.7808 -54.1498 8.02911 2.93972 77.3001 -6.36755 -2.90931 58.7992 6.14264 20.6416 1.32383 7.99759 -89.8839 10.8818 2.68952 -0.021569 -0.786308 2.68597 -0.140012 -23.3425 2.57159 0.788292 -3.32985 2.57159 0.788291 82.7371 -45.4638 -113.515 13.7213 -12.1308 -2.15407 -39.2277 8.82625 -92.4813 -32.9736 -2.39553 4.99182 -96.6259 -40.1029 65.4222 -55.0968 13.2801 33.3989 11.2173 18.5576 -46.0387 5.91051 0.463425 3.31552 20.4794 -12.8032 11.2441 8.71933 -15.9553 -0.677507 
39.7138 86.5285 -62.9063 -38.8616 57.4303 -147.297 -167.371 49.6279 86.3036 -75.4536 20.0375 -1.55691 46.5572 -5.98675 9.65645 45.195 17.6967 -2.24711 175.056 22.0926 92.4519 -44.9138 4.31742 1.45717 73.0597 -5.16167 -2.55014 57.9911 6.71841 24.4191 1.50527 7.72738 -89.4693 11.4117 3.2428 0.729597 -0.255341 3.27176 0.586024 -22.8157 2.87352 1.67114 -2.80304 2.87352 1.67115 84.3971 -42.9 -111.853 14.1031 -16.7425 -6.97596 -42.0167 16.4357 -97.9841 -33.0755 -2.60113 5.77423 -95.8468 -38.8035 66.1935 -58.3265 13.6468 40.0769 15.2653 18.1256 -53.4416 2.52501 0.194537 2.28871 19.1254 -12.8669 10.3041 8.19281 -15.5305 0.0579796 
38.5186 88.616 -71.1796 -36.9691 59.3173 -149.177 -166.838 53.8071 84.4302 -68.7566 21.6984 -2.51322 50.5056 -3.35176 11.9487 45.4219 17.676 -3.56363 177.042 11.9901 91.7415 -31.948 0.91818 0.00153963 57.7696 -1.03008 -0.472368 57.2209 7.83667 31.2514 1.68376 7.65619 -89.2787 11.5483 3.68721 1.0582 -0.117767 3.7302 0.894675 -22.683 3.19861 2.11831 -2.67036 3.19862 2.1183 85.5295 -41.42 -110.546 16.6771 -19.3868 -8.10952 -42.9499 23.6513 -102.587 -33.5889 -3.04701 7.25555 -95.3421 -37.0975 66.3698 -59.7583 13.0969 44.5645 15.3514 14.2225 -57.8342 3.74929 0.20659 1.18002 19.8799 -12.9527 8.43288 6.49804 -15.1474 -0.418038 
37.1084 90.6825 -79.8549 -33.7125 60.149 -152.634 -165.589 55.66 82.1572 -56.6608 20.6158 -4.24313 53.9119 -1.8036 10.2207 48.4589 20.8793 -3.10345 177.944 3.93464 90.6501 -19.2269 -4.72797 -1.43989 39.2495 3.63049 3.89578 44.6037 3.55517 32.148 1.7357 7.53515 -88.9656 11.7778 3.93792 1.64455 0.112015 4.00645 1.46942 -22.4502 3.26164 2.75269 -2.43751 3.26164 2.75269 84.9166 -41.023 -111.721 19.7739 -20.6687 -5.91431 -44.5118 25.4539 -103.862 -33.1574 -3.27622 8.30681 -95.5683 -35.9527 65.5226 -58.9549 12.0502 45.6042 16.5403 12.29 -60.7803 5.78976 0.310474 1.23926 21.2098 -12.8404 7.16016 4.61118 -14.7759 -1.22744 
